<svg width="158" height="22" viewBox="0 0 158 22" fill="none" xmlns="http://www.w3.org/2000/svg">
<g id="Social Links">
<path id="Facebook" d="M22 11.0276C22 4.94035 17.072 0 11 0C4.928 0 0 4.94035 0 11.0276C0 16.3649 3.784 20.809 8.8 21.8346V14.3358H6.6V11.0276H8.8V8.27068C8.8 6.14236 10.527 4.41103 12.65 4.41103H15.4V7.7193H13.2C12.595 7.7193 12.1 8.21554 12.1 8.82205V11.0276H15.4V14.3358H12.1V22C17.655 21.4486 22 16.7509 22 11.0276Z" fill="#AAAAAA"/>
<path id="Vector" d="M52.6148 4.4128C51.2214 3.75423 49.7128 3.27623 48.1413 3.00005C48.1275 2.9996 48.1138 3.00222 48.1012 3.00773C48.0885 3.01324 48.0772 3.02149 48.068 3.03192C47.8794 3.38245 47.6594 3.8392 47.5127 4.18974C45.8459 3.9348 44.1508 3.9348 42.484 4.18974C42.3374 3.82858 42.1173 3.38245 41.9183 3.03192C41.9078 3.01067 41.8764 3.00005 41.845 3.00005C40.2735 3.27623 38.7754 3.75423 37.3715 4.4128C37.361 4.4128 37.3505 4.42343 37.3401 4.43405C34.4905 8.75729 33.7047 12.9637 34.0924 17.1276C34.0924 17.1488 34.1028 17.1701 34.1238 17.1807C36.0096 18.5828 37.822 19.4326 39.6135 19.9956C39.6449 20.0062 39.6763 19.9956 39.6868 19.9744C40.1059 19.3901 40.483 18.774 40.8078 18.1261C40.8287 18.0836 40.8078 18.0411 40.7659 18.0305C40.1687 17.7968 39.603 17.5206 39.0477 17.202C39.0058 17.1807 39.0058 17.117 39.0373 17.0851C39.1525 17.0001 39.2677 16.9045 39.383 16.8196C39.4039 16.7983 39.4354 16.7983 39.4563 16.8089C43.0602 18.4766 46.947 18.4766 50.509 16.8089C50.53 16.7983 50.5614 16.7983 50.5823 16.8196C50.6976 16.9152 50.8128 17.0001 50.9281 17.0957C50.97 17.1276 50.97 17.1913 50.9176 17.2126C50.3728 17.5419 49.7966 17.8074 49.1994 18.0411C49.1575 18.0517 49.1471 18.1048 49.1575 18.1367C49.4928 18.7847 49.8699 19.4008 50.2785 19.985C50.31 19.9956 50.3414 20.0062 50.3728 19.9956C52.1748 19.4326 53.9872 18.5828 55.873 17.1807C55.8939 17.1701 55.9044 17.1488 55.9044 17.1276C56.3654 12.3157 55.1396 8.1412 52.6567 4.43405C52.6462 4.42343 52.6357 4.4128 52.6148 4.4128ZM41.3526 14.5889C40.2735 14.5889 39.3725 13.5798 39.3725 12.337C39.3725 11.0942 40.2525 10.0851 41.3526 10.0851C42.4631 10.0851 43.3431 11.1048 43.3326 12.337C43.3326 13.5798 42.4526 14.5889 41.3526 14.5889ZM48.6547 14.5889C47.5756 14.5889 46.6746 13.5798 46.6746 12.337C46.6746 11.0942 47.5546 10.0851 48.6547 10.0851C49.7652 10.0851 50.6452 11.1048 50.6347 12.337C50.6347 13.5798 49.7652 14.5889 48.6547 14.5889Z" fill="#AAAAAA"/>
<g id="Instagram">
<path id="Vector_2" d="M79 7.3335C78.0276 7.3335 77.0949 7.7198 76.4073 8.40744C75.7197 9.09507 75.3334 10.0277 75.3334 11.0002C75.3334 11.9726 75.7197 12.9053 76.4073 13.5929C77.0949 14.2805 78.0276 14.6668 79 14.6668C79.9725 14.6668 80.9051 14.2805 81.5928 13.5929C82.2804 12.9053 82.6667 11.9726 82.6667 11.0002C82.6667 10.0277 82.2804 9.09507 81.5928 8.40744C80.9051 7.7198 79.9725 7.3335 79 7.3335Z" fill="#AAAAAA"/>
<path id="Vector_3" fill-rule="evenodd" clip-rule="evenodd" d="M74.6 0C72.8496 0 71.1708 0.695355 69.9331 1.9331C68.6954 3.17084 68 4.84957 68 6.6V15.4C68 17.1504 68.6954 18.8292 69.9331 20.0669C71.1708 21.3046 72.8496 22 74.6 22H83.4C85.1504 22 86.8292 21.3046 88.0669 20.0669C89.3046 18.8292 90 17.1504 90 15.4V6.6C90 4.84957 89.3046 3.17084 88.0669 1.9331C86.8292 0.695355 85.1504 0 83.4 0L74.6 0ZM73.8667 11C73.8667 9.63856 74.4075 8.33287 75.3702 7.37019C76.3329 6.4075 77.6386 5.86667 79 5.86667C80.3614 5.86667 81.6671 6.4075 82.6298 7.37019C83.5925 8.33287 84.1333 9.63856 84.1333 11C84.1333 12.3614 83.5925 13.6671 82.6298 14.6298C81.6671 15.5925 80.3614 16.1333 79 16.1333C77.6386 16.1333 76.3329 15.5925 75.3702 14.6298C74.4075 13.6671 73.8667 12.3614 73.8667 11ZM84.1333 5.86667H85.6V4.4H84.1333V5.86667Z" fill="#AAAAAA"/>
</g>
<path id="Telegram" d="M113 0C106.928 0 102 4.928 102 11C102 17.072 106.928 22 113 22C119.072 22 124 17.072 124 11C124 4.928 119.072 0 113 0ZM118.104 7.48C117.939 9.218 117.224 13.442 116.861 15.389C116.707 16.214 116.399 16.489 116.113 16.522C115.475 16.577 114.991 16.104 114.375 15.697C113.407 15.059 112.857 14.663 111.922 14.047C110.833 13.332 111.537 12.936 112.164 12.298C112.329 12.133 115.145 9.57 115.2 9.339C115.208 9.30401 115.207 9.26769 115.197 9.23318C115.187 9.19868 115.17 9.16704 115.145 9.141C115.079 9.086 114.991 9.108 114.914 9.119C114.815 9.141 113.275 10.164 110.272 12.188C109.832 12.485 109.436 12.639 109.084 12.628C108.688 12.617 107.94 12.408 107.379 12.221C106.686 12.001 106.147 11.88 106.191 11.495C106.213 11.297 106.488 11.099 107.005 10.89C110.217 9.493 112.351 8.569 113.418 8.129C116.476 6.853 117.103 6.633 117.521 6.633C117.609 6.633 117.818 6.655 117.95 6.765C118.06 6.853 118.093 6.974 118.104 7.062C118.093 7.128 118.115 7.326 118.104 7.48Z" fill="#AAAAAA"/>
<path id="Twitter" d="M147 0C153.081 0 158 4.91857 158 11C158 17.0814 153.081 22 147 22C140.919 22 136 17.0814 136 11C136 4.91857 140.919 0 147 0ZM144.989 16.7986C149.86 16.7986 152.531 12.76 152.531 9.25571V8.91C153.05 8.53286 153.506 8.06143 153.851 7.52714C153.38 7.73143 152.861 7.87286 152.327 7.95143C152.877 7.62143 153.301 7.10286 153.49 6.49C152.971 6.78857 152.406 7.00857 151.809 7.13429C151.321 6.61571 150.63 6.30143 149.876 6.30143C148.414 6.30143 147.22 7.49571 147.22 8.95714C147.22 9.16143 147.236 9.36571 147.299 9.55429C145.099 9.44429 143.134 8.39143 141.83 6.78857C141.61 7.18143 141.469 7.63714 141.469 8.12429C141.469 9.03571 141.94 9.85286 142.647 10.3243C142.207 10.3243 141.799 10.1986 141.453 9.99429V10.0257C141.453 11.3143 142.364 12.3829 143.574 12.6343C143.354 12.6971 143.119 12.7286 142.883 12.7286C142.71 12.7286 142.553 12.7129 142.38 12.6814C142.71 13.7343 143.7 14.5043 144.847 14.52C143.936 15.2271 142.789 15.6514 141.547 15.6514C141.327 15.6514 141.123 15.6514 140.919 15.62C142.081 16.3743 143.48 16.8143 144.973 16.8143" fill="#AAAAAA"/>
</g>
</svg>
